PathFileType	4	(X/Y/Z)	/Users/itak/Documents/Research/Walk-IL/dataset/trc/00531_00183.trc
DataRate	CameraRate	NumFrames	NumMarkers	Units	OrigDataRate	OrigDataStartFrame	OrigNumFrames
100.000000	100.000000	4	53	mm	100.000000	0	472
Frame#	Time	RPSI			LPSI			L3			STRN			T10			C7			CLAV			RBAK			LBAK			LSHO			LUPA			LAEL			LAOL			LWTS			LWPS			LFRA			LIFD			LHPS			LHTS			RSHO			RUPA			RAEL			RAOL			RWTS			RWPS			RFRA			RIFD			RHTS			RHPS			RBHD			LFHD			RFHD			LBHD			LHIP			RHIP			RASI			LASI			LKNE			LTHI			LANK			LTIP			LTOE			LMT1			LMT5			LHEE			RKNE			RTHI			RANK			RTIP			RTOE			RMT1			RMT5			RHEE			
		X1	Y1	Z1	X2	Y2	Z2	X3	Y3	Z3	X4	Y4	Z4	X5	Y5	Z5	X6	Y6	Z6	X7	Y7	Z7	X8	Y8	Z8	X9	Y9	Z9	X10	Y10	Z10	X11	Y11	Z11	X12	Y12	Z12	X13	Y13	Z13	X14	Y14	Z14	X15	Y15	Z15	X16	Y16	Z16	X17	Y17	Z17	X18	Y18	Z18	X19	Y19	Z19	X20	Y20	Z20	X21	Y21	Z21	X22	Y22	Z22	X23	Y23	Z23	X24	Y24	Z24	X25	Y25	Z25	X26	Y26	Z26	X27	Y27	Z27	X28	Y28	Z28	X29	Y29	Z29	X30	Y30	Z30	X31	Y31	Z31	X32	Y32	Z32	X33	Y33	Z33	X34	Y34	Z34	X35	Y35	Z35	X36	Y36	Z36	X37	Y37	Z37	X38	Y38	Z38	X39	Y39	Z39	X40	Y40	Z40	X41	Y41	Z41	X42	Y42	Z42	X43	Y43	Z43	X44	Y44	Z44	X45	Y45	Z45	X46	Y46	Z46	X47	Y47	Z47	X48	Y48	Z48	X49	Y49	Z49	X50	Y50	Z50	X51	Y51	Z51	X52	Y52	Z52	X53	Y53	Z53	

1	0	-1159.578491210938	971.6573486328125	-434.8562927246094	-1093.035034179688	970.1095581054688	-539.8724365234375	-1135.751220703125	1031.379760742188	-496.2313842773438	-943.98828125	1199.908325195312	-391.3137512207031	-1152.973754882812	1137.165283203125	-501.4447937011719	-1116.667846679688	1367.873779296875	-477.948486328125	-977.485595703125	1294.307983398438	-408.7092590332031	-1195.91259765625	1245.312622070312	-423.3603515625	-1098.948852539062	1314.975830078125	-565.9757080078125	-981.6259155273438	1362.777099609375	-589.12841796875	-970.27685546875	1237.108276367188	-650.9039916992188	-956.5098266601562	1027.177978515625	-673.3377685546875	-1051.311279296875	1020.491760253906	-642.3045043945312	-890.50732421875	843.9702758789062	-604.044189453125	-944.4715576171875	806.33447265625	-670.7463989257812	-941.0292358398438	943.9492797851562	-668.7546997070312	-882.7265625	691.1563110351562	-593.1614379882812	-923.2051391601562	753.157470703125	-655.9983520507812	-873.4520874023438	766.0298461914062	-616.8598022460938	-1135.79833984375	1363.990356445312	-321.2157897949219	-1177.265625	1295.7607421875	-279.64111328125	-1190.13037109375	1027.31591796875	-240.60107421875	-1217.762939453125	1011.349487304688	-298.8662414550781	-1078.371215820312	834.908447265625	-213.8842010498047	-1164.762573242188	806.0787963867188	-214.8469696044922	-1187.848388671875	973.0103149414062	-232.5778045654297	-1066.198852539062	675.5197143554688	-208.3272247314453	-1072.023681640625	742.2368774414062	-184.2019653320312	-1138.993408203125	734.1236572265625	-203.9606018066406	-1136.445190429688	1516.269165039062	-400.7510375976562	-961.020263671875	1599.576904296875	-451.5751342773438	-1034.594482421875	1592.458251953125	-347.5352783203125	-1056.265502929688	1518.560913085938	-538.5905151367188	-933.8624267578125	892.4772338867188	-595.1986083984375	-1136.204956054688	866.0552368164062	-277.3563842773438	-1017.239807128906	909.552734375	-277.924072265625	-893.3748168945312	922.87939453125	-486.0612487792969	-977.1596069335938	469.2503356933594	-563.5433349609375	-940.0856323242188	625.0214233398438	-571.9027099609375	-1093.778198242188	50.56379318237305	-600.3151245117188	-1017.666809082031	321.6286010742188	-584.708984375	-953.0593872070312	38.064453125	-447.3158264160156	-1036.684936523438	43.33067321777344	-461.1621704101562	-993.5885009765625	44.78225708007812	-553.1698608398438	-1165.08251953125	48.35307693481445	-570.0645141601562	-1145.395385742188	482.2671813964844	-313.9309997558594	-1126.865356445312	739.3235473632812	-264.3015441894531	-1209.1171875	51.13874053955078	-383.5216979980469	-1148.179443359375	338.5721740722656	-334.9993286132812	-1006.828735351562	42.2618408203125	-343.4081726074219	-1054.7060546875	49.35813140869141	-403.0000915527344	-1110.603515625	46.70728302001953	-324.12158203125	-1237.282836914062	44.19924545288086	-448.6871032714844	
2	0.01	-1159.58349609375	971.6526489257812	-434.8370971679688	-1093.045532226562	970.1176147460938	-539.8688354492188	-1135.754638671875	1031.368774414062	-496.2284851074219	-943.9808959960938	1199.896240234375	-391.3207092285156	-1152.970336914062	1137.14892578125	-501.4208679199219	-1116.661987304688	1367.865966796875	-477.9486083984375	-977.4757080078125	1294.288696289062	-408.7311401367188	-1195.899047851562	1245.302734375	-423.3518371582031	-1098.955078125	1314.9541015625	-565.9762573242188	-981.6204833984375	1362.751220703125	-589.1535034179688	-970.31298828125	1237.043579101562	-650.9198608398438	-956.6698608398438	1027.079345703125	-673.3440551757812	-1051.462646484375	1020.467529296875	-642.1864624023438	-890.6101684570312	843.7936401367188	-604.1351318359375	-945.0690307617188	806.232177734375	-670.7097778320312	-941.1876220703125	943.8661499023438	-668.7259521484375	-882.758544921875	691.3514404296875	-593.2189331054688	-923.8155517578125	752.9404296875	-655.8229370117188	-873.8355712890625	765.8679809570312	-616.9669189453125	-1135.766723632812	1363.981323242188	-321.2168273925781	-1177.253540039062	1295.7568359375	-279.6424560546875	-1190.091918945312	1027.306884765625	-240.5901947021484	-1217.732299804688	1011.343383789062	-298.8472900390625	-1078.370361328125	834.8768920898438	-213.9129180908203	-1164.779174804688	806.0572509765625	-214.8492889404297	-1187.820434570312	973.0075073242188	-232.56103515625	-1066.234375	675.4732666015625	-208.3432464599609	-1072.032348632812	742.1787719726562	-184.2651519775391	-1139.034545898438	734.0980834960938	-203.9633941650391	-1136.447387695312	1516.217895507812	-400.7342224121094	-961.0570678710938	1599.59375	-451.5960998535156	-1034.642333984375	1592.457275390625	-347.5591430664062	-1056.28759765625	1518.559692382812	-538.5941772460938	-933.9781494140625	892.4097900390625	-595.2296142578125	-1136.172119140625	866.028564453125	-277.2034912109375	-1017.228759765625	909.545166015625	-277.9302673339844	-893.3699951171875	922.8562622070312	-486.0779418945312	-977.25048828125	469.1906127929688	-563.6724243164062	-940.1045532226562	625.0073852539062	-571.9280395507812	-1093.787841796875	50.55751037597656	-600.3192749023438	-1017.721008300781	321.6175842285156	-584.7444458007812	-953.0614013671875	38.05764007568359	-447.3087463378906	-1036.685302734375	43.33029174804688	-461.1632080078125	-993.5897216796875	44.77704620361328	-553.1802368164062	-1165.07958984375	48.32914352416992	-570.0673217773438	-1145.42919921875	482.2623291015625	-313.939697265625	-1126.875366210938	739.3248291015625	-264.310791015625	-1209.11279296875	51.14658355712891	-383.5094604492188	-1148.220092773438	338.5805969238281	-334.9910583496094	-1006.831787109375	42.26346206665039	-343.4039306640625	-1054.704833984375	49.35965728759766	-402.9981384277344	-1110.608520507812	46.70381927490234	-324.1302795410156	-1237.279663085938	44.19600677490234	-448.685791015625	
3	0.02	-1159.589599609375	971.6528930664062	-434.8145446777344	-1093.0576171875	970.130126953125	-539.8549194335938	-1135.758666992188	1031.3583984375	-496.2216491699219	-943.9695434570312	1199.883544921875	-391.3300476074219	-1152.966674804688	1137.134399414062	-501.3904724121094	-1116.65234375	1367.861328125	-477.9472961425781	-977.4625854492188	1294.268310546875	-408.7562561035156	-1195.8828125	1245.295043945312	-423.3397521972656	-1098.9580078125	1314.932983398438	-565.97802734375	-981.614013671875	1362.724975585938	-589.1832275390625	-970.3578491210938	1236.97265625	-650.9397583007812	-956.8592529296875	1026.974487304688	-673.3577880859375	-1051.64208984375	1020.444152832031	-642.0484008789062	-890.7313842773438	843.592529296875	-604.2937622070312	-945.7714233398438	806.1133422851562	-670.686767578125	-941.3887939453125	943.7716064453125	-668.714111328125	-883.8697509765625	690.8780517578125	-592.9463500976562	-924.5296020507812	752.6920776367188	-655.6405639648438	-874.2811889648438	765.6748046875	-617.123779296875	-1135.727416992188	1363.975219726562	-321.2151489257812	-1177.23193359375	1295.756103515625	-279.6396484375	-1190.047241210938	1027.299438476562	-240.5753784179688	-1217.696899414062	1011.340942382812	-298.8251647949219	-1078.379272460938	834.83544921875	-213.9437103271484	-1164.809936523438	806.0339965820312	-214.8538208007812	-1187.788330078125	973.0057373046875	-232.5411834716797	-1066.29150390625	675.4132690429688	-208.3632354736328	-1072.0546875	742.1104125976562	-184.3353424072266	-1139.101928710938	734.0691528320312	-203.9613037109375	-1136.449829101562	1516.156982421875	-400.7134094238281	-961.1054077148438	1599.618041992188	-451.627685546875	-1034.698608398438	1592.462280273438	-347.5914306640625	-1056.315185546875	1518.554931640625	-538.598388671875	-934.1282348632812	892.3399658203125	-595.2802734375	-1136.13330078125	865.9991455078125	-277.0369567871094	-1017.216491699219	909.5365600585938	-277.9375915527344	-893.3704833984375	922.8296508789062	-486.1032409667969	-977.3619384765625	469.1193237304688	-563.8346557617188	-940.129638671875	624.9962768554688	-571.9615478515625	-1093.7958984375	50.55129623413086	-600.3237915039062	-1017.793579101562	321.6062622070312	-584.7970581054688	-953.0628662109375	38.05293655395508	-447.3033752441406	-1036.684326171875	43.33079147338867	-461.1661682128906	-993.5878295898438	44.77320861816406	-553.1932373046875	-1165.078125	48.30515670776367	-570.0712280273438	-1145.463745117188	482.2578735351562	-313.9486999511719	-1126.89013671875	739.3323974609375	-264.3181762695312	-1209.107177734375	51.15412139892578	-383.4982299804688	-1148.261962890625	338.5929870605469	-334.9831848144531	-1006.835510253906	42.26505279541016	-343.3987731933594	-1054.70361328125	49.36148071289062	-402.99658203125	-1110.61279296875	46.70188140869141	-324.1405334472656	-1237.276123046875	44.19379425048828	-448.6846313476562	
4	0.03	-1159.596313476562	971.6607055664062	-434.7905883789062	-1093.072509765625	970.1497802734375	-539.827392578125	-1135.76318359375	1031.35107421875	-496.2099304199219	-943.9539184570312	1199.871826171875	-391.341552734375	-1152.9638671875	1137.125122070312	-501.3547058105469	-1116.637939453125	1367.862548828125	-477.945068359375	-977.4462890625	1294.249633789062	-408.7825622558594	-1195.8642578125	1245.2919921875	-423.3238525390625	-1098.95556640625	1314.91650390625	-565.9808349609375	-981.6070556640625	1362.702270507812	-589.21533203125	-970.40771484375	1236.904418945312	-650.962890625	-957.0632934570312	1026.8779296875	-673.3832397460938	-1051.832275390625	1020.425231933594	-641.904296875	-890.86474609375	843.3851928710938	-604.5316772460938	-946.5208740234375	805.9887084960938	-670.6881103515625	-941.6220703125	943.6748046875	-668.7327270507812	-885.7634887695312	689.91015625	-592.467041015625	-925.290283203125	752.4365234375	-655.4808959960938	-874.7439575195312	765.4679565429688	-617.3324584960938	-1135.681762695312	1363.974365234375	-321.2095642089844	-1177.198608398438	1295.7607421875	-279.63134765625	-1190	1027.295654296875	-240.5571136474609	-1217.659301757812	1011.344604492188	-298.8015747070312	-1078.402465820312	834.7852783203125	-213.972900390625	-1164.857543945312	806.0120849609375	-214.86181640625	-1187.7548828125	973.0062255859375	-232.5201416015625	-1066.374633789062	675.3419189453125	-208.3858642578125	-1072.095336914062	742.0366821289062	-184.4057006835938	-1139.20068359375	734.0404663085938	-203.9519653320312	-1136.451416015625	1516.09130859375	-400.6902770996094	-961.1642456054688	1599.650268554688	-451.6710205078125	-1034.758422851562	1592.475952148438	-347.6318664550781	-1056.34716796875	1518.544677734375	-538.6028442382812	-934.3047485351562	892.2770385742188	-595.35009765625	-1136.092407226562	865.9710083007812	-276.8787231445312	-1017.203796386719	909.5280151367188	-277.9459228515625	-893.3798217773438	922.8018798828125	-486.1383361816406	-977.484130859375	469.0443420410156	-564.0166015625	-940.160888671875	624.9911499023438	-572.0025634765625	-1093.80126953125	50.54580307006836	-600.3280639648438	-1017.881896972656	321.5968933105469	-584.8672485351562	-953.0630493164062	38.05143356323242	-447.3010559082031	-1036.681884765625	43.33261108398438	-461.1712646484375	-993.5819091796875	44.77127838134766	-553.2069091796875	-1165.078002929688	48.28393936157227	-570.0758666992188	-1145.49365234375	482.2548522949219	-313.9565124511719	-1126.909057617188	739.349609375	-264.3218383789062	-1209.100463867188	51.16056823730469	-383.4901123046875	-1148.298583984375	338.6084594726562	-334.9765014648438	-1006.839416503906	42.26631164550781	-343.3931274414062	-1054.702514648438	49.36346817016602	-402.99560546875	-1110.61572265625	46.70228958129883	-324.1518249511719	-1237.271728515625	44.1937370300293	-448.6837158203125	
